<!DOCTYPE svg PUBLIC "-//W3C//DTD SVG 1.1//EN" "http://www.w3.org/Graphics/SVG/1.1/DTD/svg11.dtd">

<svg fill="#3bd87f" width="256px" height="256px" viewBox="0 0 512 512" enable-background="new 0 0 512 512" id="Exchange_x5F_chip" version="1.1" xml:space="preserve" xmlns="http://www.w3.org/2000/svg" xmlns:xlink="http://www.w3.org/1999/xlink" stroke="#3bd87f" stroke-width="4.096">

<g id="SVGRepo_bgCarrier" stroke-width="0"/>

<g id="SVGRepo_tracerCarrier" stroke-linecap="round" stroke-linejoin="round"/>

<g id="SVGRepo_iconCarrier"> <g> <path clip-rule="evenodd" d="M350.08,167.91v1.652h-18.476l27.098,39.682l27.098-39.682h-17.72v-1.652 c0-40.603-33.033-73.636-73.637-73.636h-9.999v18h9.999C325.121,112.274,350.08,137.232,350.08,167.91z" fill-rule="evenodd"/> <path clip-rule="evenodd" d="M142.729,338.95v-1.651h18.476l-27.098-39.683l-27.098,39.683h17.72v1.651 c0,40.604,33.033,73.637,73.637,73.637h9.999v-18h-9.999C167.688,394.587,142.729,369.628,142.729,338.95z" fill-rule="evenodd"/> <path clip-rule="evenodd" d="M273.595,164.178c0-63.175-51.214-114.388-114.389-114.388 S44.818,101.003,44.818,164.178s51.213,114.389,114.388,114.389S273.595,227.353,273.595,164.178z M82.391,164.178 c0-42.424,34.392-76.816,76.815-76.816c42.425,0,76.816,34.392,76.816,76.816c0,42.425-34.392,76.816-76.816,76.816 C116.782,240.994,82.391,206.603,82.391,164.178z" fill-rule="evenodd"/> <path clip-rule="evenodd" d="M160.368,222.528c0.189-0.547,0.284-1.101,0.284-1.662v-8.192 c4.482-0.28,8.571-1.061,12.267-2.339c3.688-1.279,6.852-3.072,9.482-5.383c2.639-2.307,4.672-5.142,6.101-8.495 c1.436-3.356,2.15-7.249,2.15-11.68c0-3.4-0.372-6.396-1.123-8.987c-0.743-2.591-1.785-4.869-3.127-6.833 c-1.341-1.968-2.937-3.651-4.795-5.058c-1.852-1.403-3.893-2.627-6.123-3.673c-2.223-1.046-4.592-1.935-7.099-2.667 c-2.508-0.733-5.088-1.411-7.733-2.037v-25.087c2.208,0.029,4.096,0.412,5.648,1.145c1.56,0.736,2.901,1.632,4.023,2.693 s2.1,2.208,2.944,3.44c0.839,1.232,1.67,2.38,2.5,3.44c0.824,1.061,1.698,1.942,2.617,2.646c0.918,0.7,2.033,1.054,3.338,1.054 c1.027,0,2.005-0.189,2.923-0.562c0.918-0.375,1.728-0.915,2.427-1.618c0.707-0.7,1.254-1.567,1.662-2.595 c0.408-1.031,0.604-2.187,0.604-3.466c0-2.153-0.488-4.125-1.472-5.922c-0.978-1.793-2.274-3.407-3.878-4.843 c-1.604-1.436-3.426-2.701-5.467-3.794c-2.04-1.09-4.117-2.012-6.238-2.759c-2.121-0.75-4.198-1.319-6.239-1.709 c-2.041-0.39-3.841-0.616-5.394-0.682v-7.675c0-0.594-0.095-1.163-0.284-1.709c-0.189-0.547-0.452-1.028-0.78-1.451 c-0.328-0.422-0.714-0.758-1.151-1.006c-0.444-0.251-0.911-0.375-1.414-0.375s-0.983,0.124-1.436,0.375 c-0.459,0.248-0.853,0.583-1.181,1.006c-0.328,0.423-0.591,0.904-0.78,1.451c-0.189,0.546-0.276,1.115-0.276,1.709v7.675 c-3.775,0.157-7.391,0.846-10.839,2.063c-3.447,1.217-6.493,2.978-9.125,5.288c-2.639,2.311-4.737,5.164-6.297,8.567 c-1.56,3.4-2.34,7.347-2.34,11.841c0,3.684,0.656,6.982,1.961,9.901c1.312,2.919,3.199,5.484,5.663,7.7 c2.471,2.216,5.474,4.096,9.016,5.641c3.542,1.545,7.529,2.751,11.961,3.626v27.664c-2.5-0.124-4.549-0.481-6.159-1.075 c-1.604-0.594-2.923-1.348-3.958-2.27c-1.027-0.922-1.822-1.95-2.383-3.091c-0.562-1.137-1.035-2.292-1.429-3.462 s-0.766-2.311-1.122-3.418c-0.357-1.108-0.846-2.092-1.451-2.948c-0.612-0.86-1.414-1.553-2.412-2.085 c-0.999-0.528-2.34-0.794-4.023-0.794c-2.34,0-4.184,0.718-5.524,2.154c-1.342,1.436-2.012,3.495-2.012,6.177 c0,1.749,0.276,3.542,0.838,5.382c0.562,1.844,1.407,3.652,2.529,5.43s2.536,3.466,4.234,5.055 c1.706,1.592,3.681,2.999,5.926,4.212c2.245,1.218,4.781,2.201,7.602,2.952c2.828,0.747,5.94,1.17,9.345,1.261v8.192 c0,0.562,0.087,1.115,0.276,1.662c0.189,0.546,0.452,1.031,0.78,1.45c0.328,0.423,0.722,0.758,1.181,1.009 c0.452,0.248,0.933,0.372,1.436,0.372s0.97-0.124,1.414-0.372c0.438-0.251,0.823-0.586,1.151-1.009 C159.916,223.56,160.179,223.075,160.368,222.528z M160.652,172.98c1.611,0.408,3.302,0.9,5.059,1.476 c1.756,0.576,3.359,1.366,4.811,2.365c1.442,0.999,2.631,2.245,3.563,3.743c0.933,1.498,1.399,3.371,1.399,5.616 c0,2.219-0.43,4.114-1.305,5.688c-0.867,1.578-2.004,2.886-3.403,3.932s-2.988,1.841-4.76,2.387 c-1.778,0.546-3.563,0.882-5.364,1.006V172.98z M153.35,154.07c-4.526-0.999-7.901-2.489-10.117-4.472 c-2.215-1.979-3.323-4.625-3.323-7.934c0-1.432,0.313-2.813,0.94-4.14c0.619-1.327,1.523-2.507,2.689-3.535 c1.173-1.031,2.58-1.866,4.234-2.503c1.654-0.642,3.514-0.991,5.576-1.053V154.07z" fill-rule="evenodd"/> <path clip-rule="evenodd" d="M347.087,222.021c-66.221,0-120.095,53.874-120.095,120.095 S280.866,462.21,347.087,462.21s120.095-53.874,120.095-120.095S413.308,222.021,347.087,222.021z M430.128,362.915 c-3.936,15.765-12.219,29.784-23.513,40.714l15.866,15.866c-12.729,12.405-28.494,21.71-46.065,26.669l-5.821-21.726 c-7.767,2.214-15.972,3.377-24.46,3.282c-7.822-0.087-15.379-1.24-22.557-3.285l-5.822,21.729 c-17.571-4.96-33.336-14.265-46.064-26.671l15.875-15.874c-11.308-10.946-19.608-24.961-23.539-40.699l-21.714,5.818 c-2.166-8.52-3.321-17.438-3.321-26.623s1.155-18.104,3.321-26.623l21.731,5.822c3.936-15.764,12.219-29.783,23.512-40.713 l-15.865-15.865c12.729-12.406,28.494-21.71,46.065-26.67l5.821,21.727c7.767-2.215,15.973-3.378,24.46-3.283 c7.822,0.087,15.379,1.24,22.557,3.285l5.822-21.729c17.571,4.959,33.335,14.264,46.064,26.669l-15.876,15.876 c11.308,10.946,19.609,24.962,23.54,40.699l21.715-5.818c2.166,8.52,3.321,17.438,3.321,26.623s-1.155,18.104-3.321,26.623 L430.128,362.915z" fill-rule="evenodd"/> <path clip-rule="evenodd" d="M347.112,296.052c-8.214,14.911-20.099,26.297-32.108,38.452 c-4.814,4.877-7.373,9.296-7.373,16.211c0,10.512,8.953,19.08,19.923,19.08c7.486,0,14.017-3.973,17.438-9.826 c0.198,6.676-2.88,16.366-8.235,28.21h21.265c-5.241-10.991-9.275-21.171-8.891-28.294c3.4,5.906,9.961,9.91,17.469,9.91 c10.98,0,19.943-8.568,19.943-19.08c0-6.469-4.107-11.916-8.245-16.211C363.926,319.582,353.924,307.822,347.112,296.052z" fill-rule="evenodd"/> </g> </g>

</svg>